# Blender v2.79 (sub 0) OBJ File: 'Tiger_II_turret.blend'
# www.blender.org
mtllib Tiger_II_turret.mtl
o Cube
v -2.265982 2.055754 -1.570280
v 1.074967 2.055754 -1.410285
v 1.074965 2.055754 2.333786
v -2.265982 2.055754 2.493778
v -4.499459 1.503929 -1.597021
v 3.341190 1.503929 -1.384053
v 3.341188 1.503929 2.307553
v -4.499461 1.503929 2.520519
v -4.964739 -0.294279 -1.521772
v 3.572661 -0.294279 -1.380977
v 3.572659 -0.294279 2.304478
v -4.964742 -0.294279 2.445269
v -5.179838 -0.194440 -1.586698
v 3.805277 -0.194440 -1.472754
v 3.805274 -0.194440 2.396255
v -5.179841 -0.194440 2.510194
v -0.490232 2.055755 -1.868782
v -0.490233 2.055755 2.792282
v -0.475224 1.503929 2.989007
v -0.475222 1.503929 -2.065507
v -0.427020 -0.294279 -2.653221
v -0.427022 -0.294279 3.576720
v -0.404153 -0.194440 -2.782471
v -0.404156 -0.194440 3.705970
v -1.373594 2.055754 2.822904
v -1.931054 1.503930 3.080139
v -2.123570 -0.294279 3.544636
v -2.200144 -0.194440 3.663238
v -1.373593 2.055754 -1.899406
v -1.931051 1.503930 -2.156640
v -2.123568 -0.294279 -2.621139
v -2.200142 -0.194440 -2.739740
v 0.588016 2.055754 -1.552929
v 2.153862 1.503929 -1.596061
v 2.328316 -0.294279 -1.776786
v 2.495677 -0.194440 -1.880221
v 0.588015 2.055754 2.476429
v 2.153860 1.503929 2.519561
v 2.328314 -0.294279 2.700286
v 2.495674 -0.194440 2.803721
v 3.716992 -0.136113 -0.269787
v 3.595971 1.316736 -0.231180
v 3.716990 -0.136113 1.414200
v 3.595970 1.316736 1.375593
v 3.805359 -0.091933 -0.269787
v 3.684338 1.360916 -0.231180
v 3.805357 -0.091933 1.414200
v 3.684337 1.360916 1.375593
v 3.755130 -0.109620 -0.372370
v 3.752976 1.525878 -0.329059
v 3.755128 -0.109620 1.516784
v 3.752975 1.525878 1.473472
v 4.012849 -0.081554 -0.329710
v 4.010792 1.480081 -0.288355
v 4.012847 -0.081553 1.474124
v 4.010791 1.480081 1.432769
v 4.251915 0.084962 -0.105472
v 4.250369 1.258337 -0.074399
v 4.251914 0.084962 1.249886
v 4.250368 1.258337 1.218812
v 4.362371 0.084962 -0.105472
v 4.360826 1.258337 -0.074399
v 4.362370 0.084962 1.249886
v 4.360825 1.258337 1.218812
v 4.491115 0.177152 0.001016
v 4.489813 1.166147 0.027206
v 4.491114 0.177152 1.143398
v 4.489812 1.166147 1.117207
v 5.153738 0.246075 0.079621
v 5.152615 1.098969 0.102207
v 5.153737 0.246075 1.064794
v 5.152614 1.098969 1.042207
v 5.724513 0.246827 0.079622
v 5.723390 1.099721 0.102208
v 5.724511 0.246827 1.064794
v 5.723388 1.099721 1.042208
v 5.724347 0.372920 0.225271
v 5.723556 0.973627 0.241179
v 5.724345 0.372920 0.919144
v 5.723554 0.973627 0.903236
v 8.094554 0.372910 0.225271
v 8.093762 0.973617 0.241179
v 8.094552 0.372910 0.919144
v 8.093761 0.973617 0.903236
v 8.094532 0.389535 0.244475
v 8.093784 0.956992 0.259502
v 8.094531 0.389535 0.899941
v 8.093783 0.956992 0.884914
v 14.622643 0.499277 0.363650
v 14.622168 0.860400 0.373213
v 14.622643 0.499277 0.780781
v 14.622167 0.860400 0.771218
v 14.684089 0.438235 0.293142
v 14.683453 0.921441 0.305938
v 14.684088 0.438235 0.851290
v 14.683451 0.921441 0.838493
v 15.136652 0.438235 0.293141
v 15.136016 0.921441 0.305938
v 15.136651 0.438235 0.851290
v 15.136015 0.921441 0.838493
v 15.405172 0.399998 0.248974
v 15.404435 0.959678 0.263796
v 15.405171 0.399999 0.895457
v 15.404434 0.959678 0.880635
v 15.466458 0.459286 0.317364
v 15.465878 0.900552 0.329049
v 15.466458 0.459286 0.827068
v 15.465878 0.900552 0.815382
v 15.765629 0.459740 0.317364
v 15.765049 0.901007 0.329049
v 15.765629 0.459740 0.827068
v 15.765048 0.901007 0.815383
v 15.803890 0.529264 0.397612
v 15.803493 0.831584 0.405618
v 15.803890 0.529264 0.746820
v 15.803493 0.831584 0.738814
v 15.803843 0.564525 0.438342
v 15.803538 0.796323 0.444480
v 15.803843 0.564525 0.706090
v 15.803538 0.796323 0.699952
v -2.265982 2.055754 0.461749
v 1.074966 2.055754 0.461750
v -4.499460 1.503929 0.461749
v 3.341189 1.503929 0.461750
v 3.672642 -0.294279 0.461750
v -4.964740 -0.294279 0.461748
v -5.179839 -0.194440 0.461748
v 3.805276 -0.194440 0.461751
v -0.490232 2.055755 0.461750
v -1.373593 2.055754 0.461749
v 0.588015 2.055754 0.461750
v 3.595971 1.316736 0.572206
v 3.716991 -0.136113 0.572207
v 3.684338 1.360916 0.572207
v 3.805358 -0.091933 0.572207
v 3.752975 1.525878 0.572206
v 3.755129 -0.109620 0.572207
v 4.010791 1.480081 0.572207
v 4.012848 -0.081553 0.572207
v 4.250369 1.258337 0.572207
v 4.251914 0.084962 0.572207
v 4.360825 1.258337 0.572207
v 4.362370 0.084962 0.572207
v 4.489812 1.166147 0.572207
v 4.491115 0.177152 0.572207
v 5.152614 1.098969 0.572207
v 5.153737 0.246075 0.572207
v 5.723389 1.099721 0.572208
v 5.724512 0.246827 0.572208
v 5.723555 0.973627 0.572208
v 5.724346 0.372920 0.572208
v 8.093762 0.973617 0.572208
v 8.094553 0.372910 0.572208
v 8.093784 0.956992 0.572208
v 8.094531 0.389535 0.572208
v 14.622168 0.860400 0.572216
v 14.622643 0.499277 0.572216
v 14.683451 0.921441 0.572215
v 14.684088 0.438235 0.572216
v 15.136015 0.921441 0.572215
v 15.136651 0.438235 0.572216
v 15.404434 0.959678 0.572215
v 15.405171 0.399999 0.572216
v 15.465878 0.900552 0.572216
v 15.466458 0.459286 0.572216
v 15.765049 0.901007 0.572216
v 15.765629 0.459740 0.572216
v 15.803493 0.831584 0.572216
v 15.803890 0.529264 0.572216
v 15.803538 0.796323 0.572216
v 15.803843 0.564525 0.572216
v -1.300377 2.108550 -1.803406
v -0.485216 2.108551 -1.775146
v -0.485217 2.108551 0.375454
v -1.300377 2.108550 0.375454
v 0.509784 2.108550 -1.483678
v 0.509784 2.108550 0.375454
v -1.111343 2.601309 -1.555537
v -0.485216 2.601309 -1.490103
v -0.485217 2.601309 0.242794
v -1.141803 2.601309 -0.018017
v 0.320751 2.601309 -1.235810
v 0.351209 2.601309 -0.018017
vn 0.0000 1.0000 -0.0000
vn 0.1670 0.5920 -0.7885
vn 0.2366 0.9716 0.0000
vn -0.1869 0.6599 0.7278
vn -0.2399 0.9708 -0.0000
vn -0.2866 0.2367 0.9284
vn 0.9810 0.1845 -0.0592
vn 0.2376 0.1615 -0.9578
vn -0.4210 -0.9071 -0.0000
vn -0.9283 0.3719 -0.0000
vn 0.1639 -0.8377 -0.5210
vn 0.4772 -0.8787 0.0126
vn -0.2113 -0.8106 0.5461
vn 0.1746 -0.8132 0.5551
vn -0.0134 -0.7801 -0.6255
vn 0.0139 0.3567 -0.9341
vn 0.2296 0.3007 0.9256
vn 0.1846 0.4539 0.8717
vn 0.0485 0.3595 -0.9319
vn -0.1869 0.6599 -0.7278
vn -0.2866 0.2367 -0.9284
vn -0.2113 -0.8106 -0.5461
vn -0.0134 -0.7801 0.6255
vn 0.0139 0.3567 0.9341
vn 0.0485 0.3595 0.9319
vn 0.1670 0.5920 0.7885
vn 0.2376 0.1615 0.9578
vn 0.1639 -0.8377 0.5210
vn 0.1746 -0.8132 -0.5551
vn 0.2296 0.3007 -0.9256
vn 0.1846 0.4539 -0.8717
vn 0.4472 -0.8944 0.0000
vn 0.5921 0.8059 0.0000
vn 0.9801 0.1849 0.0728
vn 0.5512 0.8343 0.0000
vn -0.9233 0.3842 -0.0000
vn -0.0127 0.0255 0.9996
vn -0.4472 0.8944 -0.0000
vn -0.0127 0.0255 -0.9996
vn 0.1605 0.0263 -0.9867
vn -0.9924 -0.0365 -0.1179
vn -0.3321 0.9432 -0.0000
vn -0.9924 -0.0365 0.1179
vn 0.5715 -0.8206 0.0000
vn 0.1083 -0.9941 0.0000
vn 0.1605 0.0263 0.9867
vn 0.1749 0.9846 0.0000
vn 0.6764 0.0204 0.7363
vn 0.6793 0.7339 0.0000
vn 0.6764 0.0204 -0.7363
vn 0.5822 -0.8130 0.0000
vn 0.0000 0.0265 -0.9996
vn 0.0000 -1.0000 -0.0000
vn 0.0000 0.0265 0.9996
vn 0.1150 0.0264 0.9930
vn 0.6281 0.0214 0.7779
vn 0.5815 0.8136 0.0000
vn 0.6281 0.0214 -0.7779
vn -0.0013 1.0000 0.0000
vn 0.1008 0.9949 0.0000
vn 0.1150 0.0264 -0.9930
vn 0.1035 -0.9946 0.0000
vn 1.0000 0.0013 0.0000
vn 0.0013 -1.0000 0.0000
vn 0.0168 -0.9999 0.0000
vn 1.0000 0.0012 0.0000
vn -0.7057 0.7085 -0.0000
vn 0.0178 0.0265 0.9995
vn 0.0148 0.9999 0.0000
vn 0.0178 0.0265 -0.9995
vn -0.7466 0.0166 -0.6650
vn -0.7048 -0.7094 -0.0000
vn -0.7466 0.0166 0.6650
vn -0.1410 -0.9900 -0.0000
vn 0.6934 0.7206 0.0000
vn -0.1587 0.0259 0.9870
vn -0.1410 0.9900 0.0000
vn -0.1587 0.0259 -0.9870
vn 0.0015 -1.0000 0.0000
vn 0.7364 0.0189 -0.6763
vn 0.6953 -0.7187 0.0000
vn 0.7364 0.0189 0.6763
vn 0.8982 0.0128 0.4394
vn -0.0015 1.0000 0.0000
vn 0.8748 0.4844 0.0000
vn 0.8982 0.0128 -0.4394
vn 0.8761 -0.4821 0.0000
vn 0.0170 0.8706 -0.4918
vn -0.0000 0.8530 0.5219
vn 0.4772 -0.8787 -0.0126
vn 0.9434 0.3314 -0.0093
vn -0.1527 0.4844 0.8614
vn 0.5594 0.8289 0.0000
vn 0.1441 0.8587 -0.4919
vn -0.5849 0.8111 -0.0000
vn -0.9434 0.3316 -0.0077
vn 0.0574 0.4663 -0.8827
vn 0.1235 0.4827 0.8670
vn 0.2516 0.4973 -0.8303
usemtl Material
s off
f 131//1 37//1 3//1 122//1
f 34//2 33//2 2//2 6//2
f 124//3 122//3 3//3 7//3
f 26//4 25//4 4//4 8//4
f 121//5 123//5 8//5 4//5
f 28//6 26//6 8//6 16//6
f 14//7 6//7 42//7 41//7
f 36//8 34//8 6//8 14//8
f 127//9 126//9 12//9 16//9
f 123//10 127//10 16//10 8//10
f 35//11 36//11 14//11 10//11
f 125//12 128//12 15//12 11//12
f 27//13 28//13 16//13 12//13
f 39//14 40//14 24//14 22//14
f 31//15 32//15 23//15 21//15
f 32//16 30//16 20//16 23//16
f 40//17 38//17 19//17 24//17
f 38//18 37//18 18//18 19//18
f 30//19 29//19 17//19 20//19
f 130//1 25//1 18//1 129//1
f 121//1 4//1 25//1 130//1
f 5//20 1//20 29//20 30//20
f 13//21 5//21 30//21 32//21
f 9//22 13//22 32//22 31//22
f 22//23 24//23 28//23 27//23
f 24//24 19//24 26//24 28//24
f 19//25 18//25 25//25 26//25
f 7//26 3//26 37//26 38//26
f 15//27 7//27 38//27 40//27
f 11//28 15//28 40//28 39//28
f 21//29 23//29 36//29 35//29
f 23//30 20//30 34//30 36//30
f 20//31 17//31 33//31 34//31
f 129//1 18//1 37//1 131//1
f 133//32 41//32 45//32 135//32
f 124//33 7//33 44//33 132//33
f 7//34 15//34 43//34 44//34
f 128//35 14//35 41//35 133//35
f 134//36 48//36 52//36 136//36
f 44//37 43//37 47//37 48//37
f 132//38 44//38 48//38 134//38
f 41//39 42//39 46//39 45//39
f 49//40 50//40 54//40 53//40
f 45//41 46//41 50//41 49//41
f 135//42 45//42 49//42 137//42
f 48//43 47//43 51//43 52//43
f 139//44 53//44 57//44 141//44
f 137//45 49//45 53//45 139//45
f 52//46 51//46 55//46 56//46
f 136//47 52//47 56//47 138//47
f 140//1 60//1 64//1 142//1
f 56//48 55//48 59//48 60//48
f 138//49 56//49 60//49 140//49
f 53//50 54//50 58//50 57//50
f 143//51 61//51 65//51 145//51
f 57//52 58//52 62//52 61//52
f 141//53 57//53 61//53 143//53
f 60//54 59//54 63//54 64//54
f 68//55 67//55 71//55 72//55
f 64//56 63//56 67//56 68//56
f 142//57 64//57 68//57 144//57
f 61//58 62//58 66//58 65//58
f 146//59 72//59 76//59 148//59
f 144//60 68//60 72//60 146//60
f 65//61 66//61 70//61 69//61
f 145//62 65//62 69//62 147//62
f 149//63 73//63 77//63 151//63
f 69//52 70//52 74//52 73//52
f 147//64 69//64 73//64 149//64
f 72//54 71//54 75//54 76//54
f 150//1 80//1 84//1 152//1
f 76//63 75//63 79//63 80//63
f 148//63 76//63 80//63 150//63
f 73//63 74//63 78//63 77//63
f 152//63 84//63 88//63 154//63
f 77//52 78//52 82//52 81//52
f 151//53 77//53 81//53 153//53
f 80//54 79//54 83//54 84//54
f 155//65 85//65 89//65 157//65
f 81//63 82//63 86//63 85//63
f 153//66 81//66 85//66 155//66
f 84//63 83//63 87//63 88//63
f 156//67 92//67 96//67 158//67
f 88//68 87//68 91//68 92//68
f 154//69 88//69 92//69 156//69
f 85//70 86//70 90//70 89//70
f 93//52 94//52 98//52 97//52
f 89//71 90//71 94//71 93//71
f 157//72 89//72 93//72 159//72
f 92//73 91//73 95//73 96//73
f 161//74 97//74 101//74 163//74
f 159//53 93//53 97//53 161//53
f 96//54 95//54 99//54 100//54
f 158//1 96//1 100//1 160//1
f 162//75 104//75 108//75 164//75
f 100//76 99//76 103//76 104//76
f 160//77 100//77 104//77 162//77
f 97//78 98//78 102//78 101//78
f 165//79 105//79 109//79 167//79
f 101//80 102//80 106//80 105//80
f 163//81 101//81 105//81 165//81
f 104//82 103//82 107//82 108//82
f 112//83 111//83 115//83 116//83
f 108//54 107//54 111//54 112//54
f 164//84 108//84 112//84 166//84
f 105//52 106//52 110//52 109//52
f 169//63 113//63 117//63 171//63
f 166//85 112//85 116//85 168//85
f 109//86 110//86 114//86 113//86
f 167//87 109//87 113//87 169//87
f 171//63 170//63 120//63 119//63
f 116//63 115//63 119//63 120//63
f 168//63 116//63 120//63 170//63
f 113//63 114//63 118//63 117//63
f 114//63 168//63 170//63 118//63
f 117//63 118//63 170//63 171//63
f 111//87 167//87 169//87 115//87
f 110//85 166//85 168//85 114//85
f 115//63 169//63 171//63 119//63
f 106//84 164//84 166//84 110//84
f 103//81 163//81 165//81 107//81
f 107//79 165//79 167//79 111//79
f 98//77 160//77 162//77 102//77
f 102//75 162//75 164//75 106//75
f 94//1 158//1 160//1 98//1
f 95//53 159//53 161//53 99//53
f 99//74 161//74 163//74 103//74
f 91//72 157//72 159//72 95//72
f 86//69 154//69 156//69 90//69
f 90//67 156//67 158//67 94//67
f 83//63 153//63 155//63 87//63
f 87//65 155//65 157//65 91//65
f 79//53 151//53 153//53 83//53
f 82//63 152//63 154//63 86//63
f 74//63 148//63 150//63 78//63
f 78//1 150//1 152//1 82//1
f 71//64 147//64 149//64 75//64
f 75//63 149//63 151//63 79//63
f 67//62 145//62 147//62 71//62
f 66//60 144//60 146//60 70//60
f 70//59 146//59 148//59 74//59
f 62//57 142//57 144//57 66//57
f 59//53 141//53 143//53 63//53
f 63//51 143//51 145//51 67//51
f 54//49 138//49 140//49 58//49
f 58//1 140//1 142//1 62//1
f 50//47 136//47 138//47 54//47
f 51//45 137//45 139//45 55//45
f 55//44 139//44 141//44 59//44
f 47//42 135//42 137//42 51//42
f 42//38 132//38 134//38 46//38
f 46//36 134//36 136//36 50//36
f 15//35 128//35 133//35 43//35
f 6//33 124//33 132//33 42//33
f 43//32 133//32 135//32 47//32
f 17//88 29//88 172//88 173//88
f 1//1 121//1 130//1 29//1
f 130//89 129//89 174//89 175//89
f 10//90 14//90 128//90 125//90
f 5//10 13//10 127//10 123//10
f 13//9 9//9 126//9 127//9
f 1//5 5//5 123//5 121//5
f 6//3 2//3 122//3 124//3
f 33//1 131//1 122//1 2//1
f 177//91 176//91 182//91 183//91
f 175//92 174//92 180//92 181//92
f 131//93 33//93 176//93 177//93
f 129//89 131//89 177//89 174//89
f 33//94 17//94 173//94 176//94
f 29//95 130//95 175//95 172//95
f 179//1 180//1 183//1 182//1
f 178//1 181//1 180//1 179//1
f 172//96 175//96 181//96 178//96
f 173//97 172//97 178//97 179//97
f 174//98 177//98 183//98 180//98
f 176//99 173//99 179//99 182//99
f 10//53 11//53 39//53 22//53 27//53 12//53 126//53 9//53 31//53 21//53 35//53
