# Blender v2.78 (sub 0) OBJ File: 'Barracks.blend'
# www.blender.org
mtllib Barracks.mtl
o Cylinder
v -1.000000 -0.000000 -0.866240
v 1.000000 0.000000 -0.866240
v -1.000000 0.000000 0.866240
v 1.000000 0.000000 0.866240
v -1.000000 0.195091 0.849595
v 1.000000 0.195091 0.849595
v -1.000000 0.382684 0.800301
v 1.000000 0.382684 0.800301
v -1.000000 0.555571 0.720252
v 1.000000 0.555571 0.720252
v -1.000000 0.707107 0.612524
v 1.000000 0.707107 0.612524
v -1.000000 0.831470 0.481257
v 1.000000 0.831470 0.481257
v -1.000000 0.923880 0.331495
v 1.000000 0.923880 0.331495
v -1.000000 0.980785 0.168994
v 1.000000 0.980785 0.168994
v -1.000000 1.000000 -0.000001
v 1.000000 1.000000 -0.000001
v -1.000000 0.980785 -0.168996
v 1.000000 0.980785 -0.168996
v -1.000000 0.923879 -0.331497
v 1.000000 0.923879 -0.331497
v -1.000000 0.831469 -0.481258
v 1.000000 0.831469 -0.481258
v -1.000000 0.707106 -0.612525
v 1.000000 0.707106 -0.612525
v -1.000000 0.555569 -0.720253
v 1.000000 0.555569 -0.720253
v -1.000000 0.382682 -0.800302
v 1.000000 0.382682 -0.800302
v -1.000000 0.195089 -0.849596
v 1.000000 0.195089 -0.849596
v 1.000000 0.000000 0.168995
v 1.000000 0.000000 -0.168995
v 1.000000 0.490393 0.168995
v 1.000000 0.490393 -0.168995
v 1.033109 0.000000 0.168995
v 1.033109 0.000000 -0.168995
v 1.033109 0.490393 0.168995
v 1.033109 0.490393 -0.168995
v 1.032214 0.000182 0.146749
v 1.032214 0.000182 -0.146749
v 1.032214 0.465641 0.146749
v 1.032214 0.465641 -0.146749
v 0.989461 0.000182 0.146749
v 0.989461 0.000182 -0.146749
v 0.989461 0.465641 0.146749
v 0.989461 0.465641 -0.146749
vn 0.0000 -1.0000 0.0000
vn -0.0000 0.0850 0.9964
vn 0.0000 0.2541 0.9672
vn -0.0000 0.4202 0.9074
vn -0.0000 0.5794 0.8150
vn -0.0000 0.7259 0.6878
vn -0.0000 0.8510 0.5251
vn -0.0000 0.9438 0.3305
vn -0.0000 0.9936 0.1130
vn -0.0000 0.9936 -0.1130
vn -0.0000 0.9438 -0.3305
vn -0.0000 0.8510 -0.5251
vn -0.0000 0.7259 -0.6878
vn -0.0000 0.5794 -0.8150
vn -0.0000 0.4202 -0.9074
vn -0.0000 0.2541 -0.9672
vn -0.0000 0.0850 -0.9964
vn 1.0000 0.0000 -0.0000
vn -1.0000 -0.0000 0.0000
vn 0.0000 0.0000 1.0000
vn 0.0000 1.0000 -0.0000
vn -0.9993 0.0361 -0.0000
vn 0.9992 0.0000 -0.0402
vn -0.9992 -0.0000 -0.0402
vn -0.1987 -0.9801 0.0000
vn 0.0000 -0.0000 -1.0000
usemtl None
s off
f 1//1 2//1 36//1 35//1 4//1 3//1
f 3//2 4//2 6//2 5//2
f 5//3 6//3 8//3 7//3
f 7//4 8//4 10//4 9//4
f 9//5 10//5 12//5 11//5
f 11//6 12//6 14//6 13//6
f 13//7 14//7 16//7 15//7
f 15//8 16//8 18//8 17//8
f 17//9 18//9 20//9 19//9
f 19//10 20//10 22//10 21//10
f 21//11 22//11 24//11 23//11
f 23//12 24//12 26//12 25//12
f 25//13 26//13 28//13 27//13
f 27//14 28//14 30//14 29//14
f 29//15 30//15 32//15 31//15
f 31//16 32//16 34//16 33//16
f 33//17 34//17 2//17 1//17
f 4//18 35//18 36//18 2//18 34//18 32//18 30//18 28//18 26//18 24//18 22//18 20//18 18//18 16//18 14//18 12//18 10//18 8//18 6//18
f 1//19 3//19 5//19 7//19 9//19 11//19 13//19 15//19 17//19 19//19 21//19 23//19 25//19 27//19 29//19 31//19 33//19
f 38//20 36//20 40//20 42//20
f 37//1 38//1 42//1 41//1
f 37//20 35//20 39//20 41//20
f 36//21 35//21 39//21 40//21
f 41//22 42//22 46//22 45//22
f 41//23 39//23 43//23 45//23
f 42//24 40//24 44//24 46//24
f 40//25 39//25 43//25 44//25
f 45//26 43//26 47//26 49//26
f 46//26 44//26 48//26 50//26
f 44//1 43//1 47//1 48//1
f 45//21 46//21 50//21 49//21
l 18 37
l 22 38
