# Blender v2.79 (sub 0) OBJ File: 'soldier.blend'
# www.blender.org
mtllib soldier.mtl
o Cube
v 0.848704 -1.620575 -1.000000
v 0.848704 -1.620575 1.000000
v -0.848704 -1.620575 1.000000
v -0.848704 -1.620575 -1.000000
v 0.848705 1.620575 -0.999999
v 0.848704 1.620575 1.000001
v -0.848704 1.620575 1.000000
v -0.848704 1.620575 -1.000000
v 0.503316 1.763727 -0.593040
v 0.503316 1.763727 0.593041
v -0.503316 1.763727 -0.593040
v -0.503316 1.763727 0.593040
v 0.503316 2.068855 -0.593040
v 0.503316 2.068855 0.593041
v -0.503316 2.068855 -0.593040
v -0.503316 2.068855 0.593040
v 0.807104 2.412022 -0.950983
v 0.807104 2.412022 0.950984
v -0.807104 2.412022 -0.950984
v -0.807104 2.412022 0.950984
v 0.807104 3.407475 -0.950983
v 0.807104 3.407475 0.950984
v -0.807104 3.407475 -0.950984
v -0.807104 3.407475 0.950984
v 0.966236 3.416179 -1.138482
v 0.966235 3.416179 1.138484
v -0.966235 3.416179 -1.138483
v -0.966236 3.416179 1.138483
v 0.966236 3.481320 -1.138482
v 0.966235 3.481320 1.138484
v -0.966235 3.481320 -1.138483
v -0.966236 3.481320 1.138483
v 0.818250 3.610916 -0.964116
v 0.818249 3.610916 0.964117
v -0.818250 3.610916 -0.964116
v -0.818250 3.610916 0.964116
v 0.561927 4.235286 -0.662099
v 0.561926 4.235286 0.662100
v -0.561926 4.235286 -0.662099
v -0.561927 4.235286 0.662099
v 1.075511 -1.620575 0.000000
v -1.075511 -1.620575 -0.000000
v 1.075511 1.620575 0.000001
v -1.075511 1.620575 -0.000000
v 0.637821 1.763727 0.000000
v -0.637821 1.763727 -0.000000
v 0.637821 2.068855 0.000000
v -0.637821 2.068855 -0.000000
v 1.022793 2.412022 0.000001
v -1.022794 2.412022 -0.000000
v 1.022793 3.407475 0.000001
v -1.022794 3.407475 -0.000000
v 1.224450 3.416179 0.000001
v -1.224451 3.416179 -0.000000
v 1.224450 3.481320 0.000001
v -1.224451 3.481320 -0.000000
v 1.036918 3.610916 0.000001
v -1.036918 3.610916 -0.000000
v 0.712095 4.235286 0.000001
v -0.712095 4.235286 0.000000
v -0.695033 0.965923 1.320064
v -0.695033 1.725158 1.320064
v -0.695033 0.965923 0.938108
v -0.695033 1.725158 0.938108
v 2.099730 1.409233 1.320064
v 2.099730 1.725158 1.320064
v 2.099730 1.409233 0.938108
v 2.099730 1.725158 0.938108
v 0.382081 1.409233 0.938108
v 0.382081 1.725158 0.938108
v 0.382081 1.409233 1.320064
v 0.382081 1.725158 1.320064
v 2.099730 1.718480 0.969739
v 2.099730 1.454880 0.969739
v 2.099730 1.454880 1.288434
v 2.099730 1.718480 1.288434
v 3.769735 1.718480 0.969739
v 3.769735 1.454880 0.969739
v 3.769735 1.454880 1.288434
v 3.769735 1.718480 1.288434
vn 0.0000 -1.0000 0.0000
vn -0.0000 0.9433 0.3318
vn 0.9752 0.0000 0.2212
vn -0.0000 -0.0000 1.0000
vn -0.9752 -0.0000 -0.2212
vn 0.0000 0.0000 -1.0000
vn 0.3101 0.9481 -0.0703
vn -0.3101 0.9481 0.0703
vn 0.0000 0.9433 -0.3318
vn -0.6580 -0.7381 0.1492
vn 0.9752 0.0000 -0.2212
vn -0.9752 0.0000 0.2212
vn 0.0000 -0.7218 -0.6921
vn -0.0000 -0.7218 0.6921
vn 0.6580 -0.7381 -0.1492
vn 0.0431 -0.9990 -0.0098
vn -0.0431 -0.9990 0.0098
vn 0.0000 -0.9989 -0.0464
vn -0.0000 -0.9989 0.0464
vn -0.0000 0.8026 0.5965
vn -0.8697 0.4525 0.1973
vn 0.5638 0.8159 -0.1279
vn -0.5638 0.8159 0.1279
vn 0.0000 0.8026 -0.5965
vn 0.0000 1.0000 -0.0000
vn 0.0000 0.4354 -0.9002
vn -0.0000 0.4354 0.9002
vn 0.8697 0.4525 -0.1973
vn 0.8697 0.4525 0.1973
vn -0.5638 0.8159 -0.1279
vn 0.5638 0.8159 0.1279
vn -0.8697 0.4525 -0.1973
vn -0.0431 -0.9990 -0.0098
vn 0.0431 -0.9990 0.0098
vn 0.6580 -0.7381 0.1492
vn -0.6580 -0.7381 -0.1492
vn -0.3101 0.9481 -0.0703
vn 0.3101 0.9481 0.0703
vn -1.0000 0.0000 0.0000
vn 1.0000 -0.0000 0.0000
vn 0.3806 -0.9247 -0.0000
usemtl Material
s off
f 41//1 2//1 3//1 42//1
f 7//2 6//2 10//2 12//2
f 41//3 43//3 6//3 2//3
f 2//4 6//4 7//4 3//4
f 42//5 44//5 8//5 4//5
f 5//6 1//6 4//6 8//6
f 12//4 10//4 14//4 16//4
f 43//7 5//7 9//7 45//7
f 44//8 7//8 12//8 46//8
f 5//9 8//9 11//9 9//9
f 48//10 16//10 20//10 50//10
f 45//11 9//11 13//11 47//11
f 46//12 12//12 16//12 48//12
f 9//6 11//6 15//6 13//6
f 20//4 18//4 22//4 24//4
f 13//13 15//13 19//13 17//13
f 16//14 14//14 18//14 20//14
f 47//15 13//15 17//15 49//15
f 51//16 21//16 25//16 53//16
f 49//11 17//11 21//11 51//11
f 50//12 20//12 24//12 52//12
f 17//6 19//6 23//6 21//6
f 54//12 28//12 32//12 56//12
f 52//17 24//17 28//17 54//17
f 21//18 23//18 27//18 25//18
f 24//19 22//19 26//19 28//19
f 32//20 30//20 34//20 36//20
f 25//6 27//6 31//6 29//6
f 28//4 26//4 30//4 32//4
f 53//11 25//11 29//11 55//11
f 58//21 36//21 40//21 60//21
f 55//22 29//22 33//22 57//22
f 56//23 32//23 36//23 58//23
f 29//24 31//24 35//24 33//24
f 59//25 60//25 40//25 38//25
f 33//26 35//26 39//26 37//26
f 36//27 34//27 38//27 40//27
f 57//28 33//28 37//28 59//28
f 34//29 57//29 59//29 38//29
f 37//25 39//25 60//25 59//25
f 31//30 56//30 58//30 35//30
f 30//31 55//31 57//31 34//31
f 35//32 58//32 60//32 39//32
f 26//3 53//3 55//3 30//3
f 23//33 52//33 54//33 27//33
f 27//5 54//5 56//5 31//5
f 19//5 50//5 52//5 23//5
f 18//3 49//3 51//3 22//3
f 22//34 51//34 53//34 26//34
f 14//35 47//35 49//35 18//35
f 11//5 46//5 48//5 15//5
f 10//3 45//3 47//3 14//3
f 15//36 48//36 50//36 19//36
f 8//37 44//37 46//37 11//37
f 6//38 43//38 45//38 10//38
f 3//12 7//12 44//12 42//12
f 1//11 5//11 43//11 41//11
f 1//1 41//1 42//1 4//1
f 61//39 62//39 64//39 63//39
f 69//6 70//6 68//6 67//6
f 68//40 66//40 76//40 73//40
f 71//4 72//4 62//4 61//4
f 69//1 67//1 65//1 71//1
f 70//25 64//25 62//25 72//25
f 68//25 70//25 72//25 66//25
f 63//41 69//41 71//41 61//41
f 65//4 66//4 72//4 71//4
f 63//6 64//6 70//6 69//6
f 73//25 76//25 80//25 77//25
f 67//40 68//40 73//40 74//40
f 66//40 65//40 75//40 76//40
f 65//40 67//40 74//40 75//40
f 78//40 77//40 80//40 79//40
f 74//6 73//6 77//6 78//6
f 76//4 75//4 79//4 80//4
f 75//1 74//1 78//1 79//1
