# Blender v2.79 (sub 0) OBJ File: 'tree.blend'
# www.blender.org
mtllib tree_octa_LOD1.mtl
o Cube
v 0.369182 -0.004349 -0.369182
v 0.369182 -0.004349 0.369182
v -0.369182 -0.004349 0.369182
v -0.369182 -0.004349 -0.369182
v 0.132963 6.033811 -0.132963
v 0.132963 6.033811 0.132964
v -0.132963 6.033811 0.132963
v -0.132963 6.033811 -0.132963
v 0.369182 2.118716 -0.369182
v 0.369182 2.118716 0.369182
v -0.369182 2.118716 0.369182
v -0.369182 2.118716 -0.369182
v 1.632887 2.184889 -1.632886
v 1.632886 2.184889 1.632887
v -1.632887 2.184889 1.632886
v -1.632886 2.184889 -1.632887
v 1.079796 3.374083 -1.079795
v 1.079795 3.374083 1.079796
v -1.079796 3.374083 1.079796
v -1.079796 3.374083 -1.079796
v 1.372723 3.377805 -1.372722
v 1.372722 3.377805 1.372723
v -1.372723 3.377805 1.372722
v -1.372722 3.377805 -1.372722
v 0.725666 4.400059 -0.725665
v 0.725665 4.400059 0.725666
v -0.725666 4.400059 0.725665
v -0.725665 4.400059 -0.725666
v 1.025510 4.443294 -1.025509
v 1.025509 4.443294 1.025510
v -1.025510 4.443294 1.025509
v -1.025509 4.443294 -1.025510
vn 0.0000 -1.0000 -0.0000
vn 0.0000 1.0000 0.0000
vn 0.8721 0.4894 0.0000
vn -0.0000 0.4894 0.8721
vn -0.8721 0.4894 -0.0000
vn 0.0000 0.0000 -1.0000
vn 0.0000 -0.9986 -0.0523
vn -1.0000 -0.0000 -0.0000
vn -0.0000 -0.0000 1.0000
vn 1.0000 0.0000 0.0000
vn 0.0000 0.4217 -0.9067
vn -0.0523 -0.9986 0.0000
vn -0.0000 -0.9986 0.0523
vn 0.0523 -0.9986 0.0000
vn 0.0000 -0.9999 -0.0127
vn -0.9067 0.4217 -0.0000
vn -0.0000 0.4217 0.9067
vn 0.9067 0.4217 0.0000
vn 0.0000 0.5348 -0.8450
vn -0.0127 -0.9999 0.0000
vn -0.0000 -0.9999 0.0127
vn 0.0127 -0.9999 0.0000
vn 0.0000 -0.9898 -0.1427
vn -0.8450 0.5348 -0.0000
vn -0.0000 0.5348 0.8450
vn 0.8450 0.5348 0.0000
vn 0.0000 0.4894 -0.8721
vn -0.1427 -0.9898 -0.0000
vn -0.0000 -0.9898 0.1427
vn 0.1427 -0.9898 0.0000
usemtl Material
s off
f 1//1 2//1 3//1 4//1
f 5//2 8//2 7//2 6//2
f 29//3 5//3 6//3 30//3
f 30//4 6//4 7//4 31//4
f 31//5 7//5 8//5 32//5
f 9//6 1//6 4//6 12//6
f 13//7 9//7 12//7 16//7
f 3//8 11//8 12//8 4//8
f 2//9 10//9 11//9 3//9
f 1//10 9//10 10//10 2//10
f 17//11 13//11 16//11 20//11
f 11//12 15//12 16//12 12//12
f 10//13 14//13 15//13 11//13
f 9//14 13//14 14//14 10//14
f 21//15 17//15 20//15 24//15
f 15//16 19//16 20//16 16//16
f 14//17 18//17 19//17 15//17
f 13//18 17//18 18//18 14//18
f 25//19 21//19 24//19 28//19
f 19//20 23//20 24//20 20//20
f 18//21 22//21 23//21 19//21
f 17//22 21//22 22//22 18//22
f 29//23 25//23 28//23 32//23
f 23//24 27//24 28//24 24//24
f 22//25 26//25 27//25 23//25
f 21//26 25//26 26//26 22//26
f 5//27 29//27 32//27 8//27
f 27//28 31//28 32//28 28//28
f 26//29 30//29 31//29 27//29
f 25//30 29//30 30//30 26//30
