# Blender v2.79 (sub 0) OBJ File: 'tree_octa.blend'
# www.blender.org
mtllib tree_octa.mtl
o Cube
v 0.369182 -0.004349 -0.369182
v 0.369182 -0.004349 0.369182
v -0.369182 -0.004349 0.369182
v -0.369182 -0.004349 -0.369182
v 0.132963 6.033811 -0.132963
v 0.132963 6.033811 0.132964
v -0.132963 6.033811 0.132963
v -0.132963 6.033811 -0.132963
v 0.369182 2.118716 -0.369182
v 0.369182 2.118716 0.369182
v -0.369182 2.118716 0.369182
v -0.369182 2.118716 -0.369182
v 1.632887 2.184889 -1.632886
v 1.632886 2.184889 1.632887
v -1.632887 2.184889 1.632886
v -1.632886 2.184889 -1.632887
v 1.079796 3.374083 -1.079795
v 1.079795 3.374083 1.079796
v -1.079796 3.374083 1.079796
v -1.079796 3.374083 -1.079796
v 1.372723 3.377805 -1.372722
v 1.372722 3.377805 1.372723
v -1.372723 3.377805 1.372722
v -1.372722 3.377805 -1.372722
v 0.725666 4.400059 -0.725665
v 0.725665 4.400059 0.725666
v -0.725666 4.400059 0.725665
v -0.725665 4.400059 -0.725666
v 1.025510 4.443294 -1.025509
v 1.025509 4.443294 1.025510
v -1.025510 4.443294 1.025509
v -1.025509 4.443294 -1.025510
v 0.000000 -0.004349 -0.524239
v 0.000000 6.033811 -0.188808
v 0.000001 2.184889 -2.318699
v 0.000000 3.374083 -1.533310
v 0.000000 3.377805 -1.949265
v 0.000000 4.400059 -1.030445
v 0.000000 4.443294 -1.456223
v 0.000000 2.118716 -0.524239
v 0.524239 -0.004349 0.000000
v 0.188808 6.033811 0.000000
v 2.318699 2.184889 0.000001
v 1.533310 3.374083 0.000000
v 1.949265 3.377805 0.000001
v 1.030445 4.400059 0.000000
v 1.456223 4.443294 0.000000
v 0.000000 -0.004349 0.524239
v -0.000000 6.033811 0.188808
v -0.000000 2.118716 0.524239
v -0.000001 2.184889 2.318699
v -0.000000 3.374083 1.533310
v -0.000001 3.377805 1.949265
v -0.000000 4.400059 1.030445
v -0.000000 4.443294 1.456223
v -0.524239 -0.004349 -0.000000
v -0.188808 6.033811 0.000000
v -0.524239 2.118716 -0.000000
v -2.318699 2.184889 -0.000001
v -1.533310 3.374083 -0.000000
v -1.949265 3.377805 -0.000000
v -1.030445 4.400059 -0.000000
v -1.456223 4.443294 -0.000000
v 0.524239 2.118716 0.000000
vn 0.0000 -1.0000 0.0000
vn 0.0000 1.0000 -0.0000
vn 0.7430 0.5921 0.3121
vn -0.3121 0.5921 0.7430
vn -0.7430 0.5921 -0.3121
vn 0.0000 0.0000 -1.0000
vn 0.0000 -0.9993 -0.0369
vn -0.9220 -0.0000 -0.3872
vn -0.3872 -0.0000 0.9220
vn 1.0000 0.0000 0.0000
vn -0.3307 0.5201 -0.7875
vn -0.0368 -0.9992 -0.0155
vn -0.0155 -0.9992 0.0368
vn 0.0369 -0.9993 0.0000
vn -0.0038 -1.0000 -0.0089
vn -0.7875 0.5201 -0.3307
vn -0.3307 0.5201 0.7875
vn 0.7875 0.5201 0.3307
vn -0.2982 0.6381 -0.7099
vn -0.0089 -1.0000 -0.0038
vn -0.0038 -1.0000 0.0089
vn 0.0089 -1.0000 0.0038
vn -0.0424 -0.9940 -0.1009
vn -0.7099 0.6381 -0.2982
vn -0.2982 0.6381 0.7099
vn 0.7099 0.6381 0.2982
vn -0.3121 0.5921 -0.7430
vn -0.1009 -0.9940 -0.0424
vn -0.0424 -0.9940 0.1009
vn 0.1009 -0.9940 0.0424
vn 0.3121 0.5921 -0.7430
vn 0.0424 -0.9940 -0.1009
vn 0.2982 0.6381 -0.7099
vn 0.0038 -1.0000 -0.0089
vn 0.3307 0.5201 -0.7875
vn 0.1009 -0.9940 -0.0424
vn 0.7099 0.6381 -0.2982
vn 0.0089 -1.0000 -0.0038
vn 0.7875 0.5201 -0.3307
vn 0.7430 0.5921 -0.3121
vn 0.0424 -0.9940 0.1009
vn 0.2982 0.6381 0.7099
vn 0.0038 -1.0000 0.0089
vn 0.3307 0.5201 0.7875
vn 0.0155 -0.9992 0.0368
vn 0.3872 -0.0000 0.9220
vn 0.3121 0.5921 0.7430
vn -0.1009 -0.9940 0.0424
vn -0.7099 0.6381 0.2982
vn -0.0089 -1.0000 0.0038
vn -0.7875 0.5201 0.3307
vn -0.0368 -0.9992 0.0155
vn -0.9220 -0.0000 0.3872
vn -0.7430 0.5921 0.3121
usemtl Material
s off
f 1//1 41//1 2//1 48//1 3//1 56//1 4//1 33//1
f 5//2 34//2 8//2 57//2 7//2 49//2 6//2 42//2
f 47//3 42//3 6//3 30//3
f 55//4 49//4 7//4 31//4
f 63//5 57//5 8//5 32//5
f 9//6 1//6 33//6 4//6 12//6 40//6
f 13//7 9//7 40//7 12//7 16//7 35//7
f 56//8 58//8 12//8 4//8
f 48//9 50//9 11//9 3//9
f 1//10 9//10 64//10 10//10 2//10 41//10
f 36//11 35//11 16//11 20//11
f 58//12 59//12 16//12 12//12
f 50//13 51//13 15//13 11//13
f 9//14 13//14 43//14 14//14 10//14 64//14
f 37//15 36//15 20//15 24//15
f 59//16 60//16 20//16 16//16
f 51//17 52//17 19//17 15//17
f 43//18 44//18 18//18 14//18
f 38//19 37//19 24//19 28//19
f 60//20 61//20 24//20 20//20
f 52//21 53//21 23//21 19//21
f 44//22 45//22 22//22 18//22
f 39//23 38//23 28//23 32//23
f 61//24 62//24 28//24 24//24
f 53//25 54//25 27//25 23//25
f 45//26 46//26 26//26 22//26
f 34//27 39//27 32//27 8//27
f 62//28 63//28 32//28 28//28
f 54//29 55//29 31//29 27//29
f 46//30 47//30 30//30 26//30
f 5//31 29//31 39//31 34//31
f 29//32 25//32 38//32 39//32
f 25//33 21//33 37//33 38//33
f 21//34 17//34 36//34 37//34
f 17//35 13//35 35//35 36//35
f 25//36 29//36 47//36 46//36
f 21//37 25//37 46//37 45//37
f 17//38 21//38 45//38 44//38
f 13//39 17//39 44//39 43//39
f 29//40 5//40 42//40 47//40
f 26//41 30//41 55//41 54//41
f 22//42 26//42 54//42 53//42
f 18//43 22//43 53//43 52//43
f 14//44 18//44 52//44 51//44
f 10//45 14//45 51//45 50//45
f 2//46 10//46 50//46 48//46
f 30//47 6//47 49//47 55//47
f 27//48 31//48 63//48 62//48
f 23//49 27//49 62//49 61//49
f 19//50 23//50 61//50 60//50
f 15//51 19//51 60//51 59//51
f 11//52 15//52 59//52 58//52
f 3//53 11//53 58//53 56//53
f 31//54 7//54 57//54 63//54
